<?xml version="1.0" encoding="UTF-8" standalone="no"?>
<svg
   xmlns:dc="http://purl.org/dc/elements/1.1/"
   xmlns:cc="http://creativecommons.org/ns#"
   xmlns:rdf="http://www.w3.org/1999/02/22-rdf-syntax-ns#"
   xmlns:svg="http://www.w3.org/2000/svg"
   xmlns="http://www.w3.org/2000/svg"
   xml:space="preserve"
   enable-background="new 0 0 864 864"
   viewBox="0 0 522.96234 588.87128"
   height="588.87128"
   width="522.96234"
   y="0px"
   x="0px"
   id="Layer_1"
   version="1.1"><metadata
   id="metadata4616"><rdf:RDF><cc:Work
       rdf:about=""><dc:format>image/svg+xml</dc:format><dc:type
         rdf:resource="http://purl.org/dc/dcmitype/StillImage" /><dc:title></dc:title></cc:Work></rdf:RDF></metadata><defs
   id="defs4614" />




<g
   transform="translate(-181.90312,-169.32133)"
   style="display:inline"
   id="layer3"><path
     style="clip-rule:evenodd;fill:#ed1c24;fill-rule:evenodd;stroke-width:1.03649771"
     id="path4609"
     d="m 538.37057,381.97355 c 0,0 120.93061,135.628 164.06164,183.682 0,0 -164.05949,192.084 -165.25306,192.084 -1.60505,-2.583 -167.73476,-191.982 -167.73476,-191.982 z" /></g><g
   transform="translate(-181.90312,-169.32133)"
   style="display:inline"
   id="layer1"><path
     id="path4603"
     d="m 700.46621,398.19075 c -12.122,43.007 -49.747,58.445 -92.259,52.941 -16.351,-2.116 -29.876,-9.655 -41.632,-20.853 -1.535,-1.463 -3.215,-2.773 -5.017,-4.315 -7.013,21.926 -0.403,40.541 30.712,87.017 -34.895,0 -69.291,0 -104.578,0 19.121,-25.208 36.383,-50.753 28.219,-85.044 -9.635,5.934 -17.93,11.985 -27.001,16.46 -34.971,17.255 -90.324,8.329 -111.167,-37.841 -17.043,-37.75 -5.798,-84.443 25.518,-105.194 20.065,-13.297 41.39,-16.25 65.057,-6.411 -3.444,-4.998 -6.486,-9.006 -9.104,-13.273 -28.357,-46.242 -4.661,-99.615 48.499,-109.87 24.449,-4.717 47.947,-2.63 70.814,7.354 44.759,19.542 50.379,75.393 27.748,105.681 -2.319,3.104 -4.645,6.205 -8.098,10.815 16.521,-7.409 32.264,-7.851 47.983,-4.115 26.762,6.361 43.778,22.565 54.111,48.744 10.046,25.446 0.536,56.699 0.195,57.904 z"
     style="clip-rule:evenodd;fill-rule:evenodd" /></g><g
   transform="translate(-181.90312,-169.32133)"
   style="display:inline"
   id="layer2"><path
     style="clip-rule:evenodd;fill-rule:evenodd"
     id="path4607"
     d="m 339.30706,393.62658 c 34.446,23.316 118.694,94.258 151.071,186.615 10.962,39.732 -2.836,85.749 -37.404,101.76 -47.473,21.987 -89.612,-6.907 -92.371,-9.146 -4.873,17.264 -0.002,29.676 7.095,43.998 7.047,14.222 16.076,27.461 24.36,41.339 -34.387,0 -69.216,0 -105.276,0 19.775,-25.626 37.132,-51.712 29.162,-85.36 -11.857,5.198 -22.633,11.833 -34.332,14.708 -104.423,16.449 -100.286,-79.059 -91.17,-107.475 21.543,-67.152 121.659,-164.216 148.865,-186.439 z" /></g><g
   transform="translate(-181.90312,-169.32133)"
   style="display:inline"
   id="layer4"><path
     style="clip-rule:evenodd;fill:#ed1c24;fill-rule:evenodd"
     id="path4605"
     d="m 505.72993,284.38406 c -9.712,35.554 -30.536,64.376 -55.441,90.498 -34.404,36.084 -69.285,71.714 -103.981,107.52 -0.353,0.365 -0.971,0.474 0.016,0.018 -38.472,-39.119 -77.022,-77.382 -114.463,-116.703 -26.691,-28.032 -47.264,-60.57 -49.745,-100.082 -2.047,-32.598 10.676,-61.229 38.064,-80.666 24.892,-17.665 52.642,-18.292 79.936,-6.213 25.407,11.244 36.902,33.926 43.557,59.544 0.582,2.239 1.181,4.473 2.158,8.172 3.071,-10.215 4.962,-18.911 8.258,-27.037 12.465,-30.734 36.319,-47.865 68.591,-49.968 28.013,-1.827 56.415,13.551 74.153,44.642 15.047,26.376 9.318,68.735 8.897,70.275 z" /></g></svg>